# xmcd
#
# Track frame offsets:
#	150
#	21191
#	32614
#	46676
#	64436
#	84511
#	109097
#	125955
#	143747
#	160105
#	174993
#	192404
#	210161
#	231155
#	249632
#
# Disc length: 3602 seconds
#
# Revision: 1
# Processed by: cddbd v1.5.2PL0 Copyright (c) Steve Scherf et al.
# Submitted via: audiograbber 1.83.01
#
DISCID=c90e100f
DTITLE=Chartbuster - CBE3-21
DYEAR=1900
DGENRE=KARAOKE
TTITLE0=Aerosmith - Dream On
TTITLE1=ZZ Top - Tush
TTITLE2=Leo Sayer - You make Me Feel Like Dancing
TTITLE3=Bonnie Raitt - Runaway
TTITLE4=Michael Jackson - Beat It
TTITLE5=Steve Miller Band - Abracadabra
TTITLE6=Jennifer Warnes - I Know A Heartache When I See One
TTITLE7=Hall and Oats - I Can't Go For That
TTITLE8=Men At Work - Who Can It Be Now
TTITLE9=Anne Murray - Shadows In The Monnlight
TTITLE10=Billy Joel - For The Longest Time
TTITLE11=Human League - Human
TTITLE12=Blondie - The Tide Is High
TTITLE13=James Brown - Living In America
TTITLE14=Lionel Richie - Deep River Woman
EXTD=
EXTT0=
EXTT1=
EXTT2=
EXTT3=
EXTT4=
EXTT5=
EXTT6=
EXTT7=
EXTT8=
EXTT9=
EXTT10=
EXTT11=
EXTT12=
EXTT13=
EXTT14=
PLAYORDER=
